<svg width="75" height="91" viewBox="0 0 75 91" fill="none" xmlns="http://www.w3.org/2000/svg">
<g clip-path="url(#clip0_14_9659)">
<path d="M38.6449 0.117365C38.3078 0.117365 37.9591 0.0938993 37.6105 0.117365L37.4942 0.680542V9.7735C30.4277 10.0434 24.0005 12.5073 18.8052 17.3412C6.00887 29.2383 7.47331 49.982 21.4319 60.2013C26.3831 63.8268 31.4157 65.2347 37.4942 65.5749V90.3313L37.7034 90.8006C37.6686 90.8241 37.6337 91.0352 37.4942 90.9648C29.4747 85.075 21.8271 78.5749 15.272 71.0425C9.61185 64.5425 4.09116 56.658 1.5807 48.2925C-5.70661 24.0524 13.2962 -0.258086 38.0637 0.0117694C38.2381 0.0117694 38.5286 -0.0586277 38.6332 0.117365H38.6449Z" fill="white"/>
<path d="M38.6448 0.117314C51.3714 -0.0704114 64.2027 8.51804 70.2696 19.5235C78.0218 33.5911 75.6973 48.1985 67.364 61.0812C61.4597 70.1976 53.0334 78.7274 44.5258 85.6498C42.6197 87.1985 39.7722 89.6507 37.7033 90.8005L37.4941 90.3312V65.5749C37.4941 65.5749 37.5639 65.5749 37.5987 65.5749C37.8777 65.5866 38.3426 65.6453 38.5402 65.4693C51.8596 65.3402 63.1334 54.2058 64.8651 41.1236C66.9456 25.4837 54.7536 10.6769 39.1678 9.86732C38.7842 9.69132 38.1566 9.74999 37.715 9.76172C37.6452 9.76172 37.5755 9.76172 37.5058 9.76172V0.692224L37.622 0.129047C37.959 0.0938486 38.3077 0.129047 38.6564 0.129047L38.6448 0.117314Z" fill="white"/>
<path d="M38.5402 65.4928C38.3426 65.6688 37.8893 65.6101 37.5988 65.5984C37.808 65.4107 38.238 65.4928 38.5402 65.4928Z" fill="white"/>
<path d="M39.1562 9.89079C38.6913 9.86733 38.0985 9.99639 37.7034 9.7852C38.145 9.77347 38.7843 9.7148 39.1562 9.89079Z" fill="white"/>
<path d="M12.9242 38.4838L13.0288 35.0108C14.2956 35.0578 15.4928 35.445 16.4691 36.278C16.5504 34.2599 17.0502 32.3123 17.6197 30.3998L14.4932 29.074L15.8531 25.8827C17.0386 26.2229 17.9102 27.2437 18.6541 28.194C19.456 26.4341 20.5834 24.8267 21.8735 23.3953C21.92 23.2662 21.8503 23.1959 21.7922 23.102C21.5016 22.6679 19.5606 21.213 19.5025 20.8845C19.6885 20.4738 21.8968 18.3854 22.0943 18.4792C23.0125 19.3123 23.338 20.2392 23.5588 21.4242C23.5704 21.5181 23.5239 21.6588 23.7099 21.5884C23.8377 21.5298 24.3956 20.9549 24.6048 20.8141C25.1278 20.4269 25.6625 20.0514 26.2087 19.6995C26.5458 19.4765 28.3356 18.5496 28.4054 18.444C28.6378 18.0686 27.1385 15.5108 27.3477 15.1823C27.5802 14.8186 29.9628 14.1381 30.4742 13.9152C30.9856 15.0298 31.1018 16.3204 30.7415 17.4937C32.6243 16.8484 34.5769 16.4729 36.576 16.3439V12.8709L40.0162 12.9765C40.086 14.1381 39.7489 15.3231 39.0283 16.2383C38.9121 16.5551 39.7722 16.426 39.9698 16.4495C41.6085 16.6372 43.1892 17.1065 44.7466 17.611L46.1297 14.4549C46.2808 14.4079 48.768 15.546 49.0237 15.722C49.1167 15.7924 49.198 15.8042 49.1748 15.9567C49.1515 16.2383 48.2915 17.5172 48.0474 17.7635C47.7452 18.0686 47.3152 18.2094 47.0711 18.4323C46.9897 18.5027 46.9665 18.5966 47.0014 18.6552C48.7447 19.4413 50.3138 20.6381 51.7434 21.917C51.9177 21.917 53.8354 19.5939 54.1608 19.5117C54.4049 19.4413 55.172 20.3213 55.3928 20.5442C55.6718 20.8375 56.5899 21.7762 56.4388 22.1164C56.1715 22.7383 54.0795 23.6065 53.3705 23.5361C54.6374 25.0614 55.8577 26.6688 56.6016 28.5226L59.7745 27.1733C59.9721 27.185 61.2157 30.2942 61.0646 30.5172C59.9023 30.963 58.7401 31.1155 57.5314 30.7401C58.252 32.6173 58.496 34.6236 58.682 36.63H62.1222V39.6218C62.1222 39.6218 61.9944 39.9856 61.9479 39.9973C61.0646 40.0208 60.0999 39.8565 59.3328 39.3872C59.0423 39.2112 58.8912 38.8827 58.5774 38.8357C58.6006 40.8303 58.0544 42.7545 57.5314 44.6552C57.8917 44.9486 60.5997 45.9459 60.6462 46.1453L59.3096 49.3366C59.1469 49.4657 57.3919 48.2455 57.2292 47.917L56.497 46.8141C55.788 48.4215 54.8117 50.0289 53.6262 51.3195C53.4867 51.472 53.1264 51.6363 53.0683 51.8005C52.9986 52 53.5565 52.0587 53.6146 52.3051C53.7192 52.3755 53.8238 52.4693 53.9516 52.481C54.1376 52.481 55.9042 51.6246 56.311 51.5072C56.8805 51.343 57.5778 51.2256 58.1706 51.2256C58.2868 51.3078 56.6132 53.3845 56.497 53.4783C56.1483 53.7365 55.1255 54.0063 54.6374 54.2292C53.3124 54.8276 52.4523 55.2735 50.9879 55.6489C50.7322 55.5551 50.5346 55.7193 50.3603 55.7545C45.3045 56.8339 41.841 52.4928 36.5644 52.9152C33.7285 53.1498 31.5667 54.9919 28.9168 55.5903C26.4528 56.1417 24.3607 55.8718 22.0479 54.9567C21.211 54.6282 19.3747 53.9242 18.689 53.5135C18.3403 53.3023 18.1427 52.9386 17.8986 52.6218C17.7824 52.4693 16.9572 51.3078 17.0502 51.2256C17.6197 51.2139 18.1892 51.3312 18.7354 51.4603C19.2003 51.5776 20.2231 52.0352 20.5486 52.0587C20.7113 52.0587 21.397 51.8944 21.6876 51.8475C21.827 51.824 21.8735 51.9179 21.8387 51.695C20.5718 50.1345 19.3514 48.4919 18.6076 46.6029L15.516 47.8466C15.4347 47.8818 15.3533 47.87 15.2836 47.8114C15.1441 47.7175 13.9354 44.7491 14.04 44.6083C15.2371 44.1742 16.4458 44.0099 17.6778 44.3971C17.1315 43.1182 16.9456 41.769 16.7364 40.4079C16.7364 40.2437 16.8061 39.9738 16.6318 39.88C16.5969 39.5984 16.5737 39.3285 16.5272 39.0352L16.6318 38.9883L16.5272 38.9413C16.5155 38.8475 16.5504 38.6949 16.5272 38.6245C16.4923 38.519 16.4807 38.5307 16.3761 38.519C15.3417 38.3899 14.0516 38.6246 12.9823 38.519L12.9242 38.4838ZM36.5527 18.4088C35.5067 18.4558 34.4491 18.5614 33.4263 18.7726C32.9614 18.8664 31.6713 19.1597 31.311 19.3709C31.1948 19.4413 31.1367 19.4531 31.1367 19.6056C31.1367 19.7229 31.927 21.7292 32.0316 21.7527C33.496 21.2951 35.007 20.9079 36.5527 20.9197V18.3971V18.4088ZM38.5402 18.4088V20.9314C40.0046 20.9549 41.4807 21.2365 42.8638 21.7527C43.0149 21.7292 43.7703 19.7229 43.8517 19.4179C42.1432 18.8547 40.3533 18.444 38.5402 18.4206V18.4088ZM29.2654 20.2978C28.2775 20.732 27.3477 21.3069 26.4644 21.9404C26.2087 22.1282 24.9186 23.0785 24.8373 23.2428C24.7559 23.407 24.814 23.3953 24.8837 23.5126C24.9767 23.6417 26.2552 24.944 26.3482 24.9792C26.4877 25.0379 26.5225 25.0496 26.662 24.9792C26.9177 24.8619 27.6383 24.1345 27.987 23.8881C28.6494 23.4188 29.3468 22.9964 30.0558 22.6092C30.1952 22.3863 29.2771 20.7085 29.2654 20.2978ZM44.7815 22.6092C46.1994 23.1137 47.3268 24.111 48.4891 25.0144C48.6053 25.0144 50.1627 23.5009 50.1859 23.3836C50.2673 22.926 46.4551 20.4504 45.7694 20.2978L44.7815 22.6092ZM36.5527 22.926C34.112 23.0903 31.7526 23.8764 29.6955 25.1904C29.4863 25.3312 28.0334 26.352 28.0102 26.4459C27.9288 26.9504 34.019 32.2888 34.5769 33.2744C35.2394 33.0162 35.8205 32.5704 36.5644 32.4765V22.9143L36.5527 22.926ZM38.5402 22.926V32.4413C38.8656 32.6643 39.3073 32.7112 39.6908 32.8637C39.9698 32.9693 40.1906 33.333 40.516 33.1805L47.0711 26.5514C44.7466 24.4043 41.6899 23.1372 38.5402 22.926ZM20.3161 29.4377L22.5011 30.3412C23.1985 29.0505 23.9539 27.7834 24.9535 26.704C25.0348 26.5866 25.0116 26.5045 24.9535 26.3872C24.907 26.2933 23.6285 25.0027 23.5007 24.9088C23.1752 24.6859 22.6871 25.4838 22.4663 25.7653C22.1525 26.1643 20.1534 29.2031 20.3277 29.4377H20.3161ZM54.6606 29.3321C54.7652 29.1796 53.8122 27.5722 53.6262 27.2906C53.3589 26.8682 52.0804 25.0379 51.7434 24.8736C51.5923 24.7915 51.5923 24.8502 51.476 24.9206C50.9995 25.2491 50.5114 26.0352 50.0116 26.3989L52.4639 30.2825C52.7196 30.0244 54.556 29.4377 54.6374 29.3321H54.6606ZM23.1288 34.9052C23.1288 34.9052 23.059 34.9404 23.0241 35.1164C23.0009 35.2455 23.0474 35.4097 23.0241 35.5388C23.0009 35.7031 23.0241 35.7265 23.0241 35.75C23.0009 36.0081 22.8498 36.2897 22.9195 36.5948H32.45C32.6708 36.2311 32.7406 35.7735 32.9033 35.3628C33.0079 35.093 33.3217 34.8818 33.1822 34.6002L26.5109 27.9829C24.7327 29.9305 23.6518 32.324 23.1288 34.917V34.9052ZM42.4918 36.583H52.0688C52.0107 33.3917 50.5695 30.3646 48.582 27.9594L41.9223 34.5884C41.7596 34.9522 42.6662 36.0316 42.5035 36.583H42.4918ZM56.5434 36.583C56.7991 35.9612 55.7764 31.1507 55.4509 31.1155L53.324 32.1246L54.1492 36.583H56.5434ZM18.4449 36.583H20.9437C20.967 35.0812 21.3273 33.5912 21.7805 32.1715L19.4909 31.2211C18.8749 32.9459 18.5727 34.7527 18.4449 36.583ZM40.5974 37.5217C40.5974 35.8087 39.2259 34.4125 37.5174 34.4125C35.8089 34.4125 34.4374 35.7969 34.4374 37.5217C34.4374 39.2464 35.8089 40.6309 37.5174 40.6309C39.2259 40.6309 40.5974 39.2464 40.5974 37.5217ZM20.9437 38.5894H18.4449C18.6657 40.361 18.8168 42.2031 19.549 43.8457L21.7805 43.0009C21.3854 41.5695 20.9321 40.1029 20.9437 38.5894ZM32.45 38.5894H22.9195C23.1985 41.7455 24.384 44.7726 26.5225 47.0957L33.1822 40.4783C33.2403 40.3493 32.5778 38.8592 32.45 38.5894ZM52.0688 38.5894H42.6429C42.5151 38.9648 41.7829 40.1968 41.9107 40.4783L48.4891 47.0957C48.8145 47.1543 50.1162 45.019 50.3138 44.6552C51.3133 42.8249 51.999 40.6895 52.0688 38.5894ZM56.5434 38.5894H54.1492C53.94 40.0442 53.8354 41.546 53.2078 42.8953L55.5439 43.8457C56.1367 42.1679 56.5551 40.3845 56.5318 38.5894H56.5434ZM42.701 51.9296L39.9465 42.1561L38.145 42.6489C37.0874 42.7897 36.0181 42.5668 35.0999 42.0505L32.3919 51.9296C35.7857 50.463 39.3189 50.3926 42.701 51.9296ZM44.2585 50.463C44.5025 50.639 47.1176 48.8908 47.0595 48.5388C47.0014 48.1868 42.98 44.5731 42.4918 43.9513L44.2585 50.463ZM30.7299 50.5686L32.4965 44.0569C32.0083 44.6435 28.0799 48.222 28.0334 48.5388C27.9753 48.8908 30.3463 50.3339 30.7299 50.5686ZM22.6057 44.7843C22.0479 45.0659 21.1645 45.2771 20.6532 45.6056C20.1883 45.8989 20.6996 46.5442 20.9205 46.9666C21.5713 48.1868 22.4895 49.3249 23.3844 50.3574L25.0813 48.6209C24.1399 47.4242 23.152 46.2157 22.6057 44.7843ZM54.7768 45.6291C54.3119 45.6173 52.7894 44.6318 52.4872 44.8312C52.371 44.9134 52.3593 45.1363 52.278 45.2301C51.8828 45.7229 51.7317 46.2157 51.3831 46.7672C50.9995 47.3773 50.4416 47.9522 49.9883 48.5271C49.9535 48.6913 51.1739 49.806 51.3947 50.0289C51.569 50.2166 51.5109 50.5217 51.8015 50.2401C53.0683 48.9612 54.0446 47.2599 54.7768 45.6291ZM29.8698 53.1733C29.9512 52.9738 30.1836 52.6688 30.0558 52.4576C29.9977 52.3637 28.4054 51.5072 28.0916 51.2843C27.5685 50.9088 27.0572 50.4982 26.6039 50.0523L24.6978 51.7771L25.953 52.8213C26.3249 52.9738 26.9293 53.6074 27.2664 53.7013C28.0102 53.9007 29.126 53.3023 29.8698 53.1733ZM45.1185 53.056C45.2929 53.2202 47.4663 53.8186 47.7103 53.7599C47.8731 53.7247 50.3022 51.9296 50.3022 51.7653C50.0232 51.5424 48.6983 50.0054 48.5007 50.0406C47.8266 50.7094 47.0362 51.2608 46.2343 51.7536C46.0018 51.8944 44.9326 52.3872 44.8861 52.4459C44.8512 52.4928 45.0604 52.9856 45.1185 53.0442V53.056Z" fill="white"/>
<path d="M52.6964 57.0803L52.801 57.1859C52.0455 57.8547 50.8484 58.7229 49.9535 59.204C48.4774 60.0018 47.9544 59.8962 46.3272 59.5794C43.3286 58.981 40.7484 56.8457 37.6569 56.7635C34.2166 56.6814 31.5086 59.2157 28.1613 59.6967C26.3133 59.9666 25.9995 59.7319 24.4886 58.805C23.6169 58.2653 22.7336 57.62 21.9781 56.9161C21.9665 56.8339 22.0827 56.8457 22.1292 56.8691C23.3496 57.2563 24.2096 57.7139 25.5695 57.8078C29.8465 58.1128 32.2059 55.4025 36.0994 54.8745C42.4337 54.018 45.9321 59.8727 52.6964 57.0686V57.0803Z" fill="white"/>
<path d="M45.0953 61.1868C45.2464 61.3393 45.0604 61.3628 44.9675 61.4215C44.6536 61.5975 42.6662 62.1606 42.3408 62.1372C41.8526 62.1137 40.4347 61.3393 39.7606 61.1516C37.9126 60.6354 36.239 60.7644 34.4491 61.4215C34.0074 61.5857 33.1241 62.1137 32.7522 62.1372C32.4965 62.1606 29.8931 61.4919 29.8931 61.3393C31.9386 60.4594 33.9493 59.157 36.2041 58.8872C39.4816 58.4883 41.3761 59.5794 44.1887 60.8935C44.3631 60.9756 45.0604 61.1516 45.0953 61.1868Z" fill="white"/>
<path d="M16.4691 38.5894C15.4347 38.4955 14.191 38.7184 13.1799 38.5894C13.0753 38.5776 12.9358 38.6246 12.9242 38.4838C13.9818 38.5894 15.2836 38.343 16.318 38.4838C16.4226 38.4955 16.4342 38.4838 16.4691 38.5894Z" fill="white"/>
<path d="M52.6964 57.0803C52.8126 57.0334 52.9056 56.7988 53.1148 56.8692C53.0916 57.0334 52.9056 57.0921 52.801 57.1859L52.6964 57.0803Z" fill="white"/>
<path d="M50.9297 55.6137C50.7554 55.6606 50.5694 55.8014 50.3021 55.7193C50.4765 55.6841 50.674 55.5198 50.9297 55.6137Z" fill="white"/>
<path d="M16.6666 40.3727C16.6434 40.2437 16.5853 40.0677 16.562 39.8448C16.7363 39.9386 16.655 40.1967 16.6666 40.3727Z" fill="white"/>
<path d="M16.4691 39C16.4691 39 16.4691 38.9296 16.4691 38.8944L16.5737 38.9413L16.4691 38.9883V39Z" fill="white"/>
<path d="M23.0241 35.75C23.0241 35.75 23.0009 35.7031 23.0241 35.5388V35.75Z" fill="white"/>
<path d="M23.0242 35.1164C23.059 34.9404 23.1288 34.917 23.1288 34.9052L23.0242 35.1164Z" fill="white"/>
<path d="M37.5406 38.9531C38.3173 38.9531 38.9469 38.3174 38.9469 37.5334C38.9469 36.7493 38.3173 36.1137 37.5406 36.1137C36.7639 36.1137 36.1343 36.7493 36.1343 37.5334C36.1343 38.3174 36.7639 38.9531 37.5406 38.9531Z" fill="white"/>
</g>
<defs>
<clipPath id="clip0_14_9659">
<rect width="75" height="91" fill="white"/>
</clipPath>
</defs>
</svg>
